<svg width="64" height="64" viewBox="0 0 64 64" fill="none" xmlns="http://www.w3.org/2000/svg">
<path d="M31.9999 56L31.7331 55.5998C29.8807 52.8212 28.9545 51.4319 27.7309 50.4262C26.6475 49.5358 25.3993 48.8678 24.0575 48.4603C22.5419 48 20.8722 48 17.5328 48H13.8666C10.8796 48 9.38617 48 8.2453 47.4187C7.24177 46.9074 6.42588 46.0915 5.91455 45.088C5.33325 43.9471 5.33325 42.4536 5.33325 39.4667V16.5333C5.33325 13.5464 5.33325 12.0529 5.91455 10.9121C6.42588 9.90852 7.24177 9.09262 8.2453 8.5813C9.38617 8 10.8796 8 13.8666 8H14.9333C20.9071 8 23.8941 8 26.1758 9.1626C28.1829 10.1852 29.8147 11.817 30.8373 13.8241C31.9999 16.1058 31.9999 19.0928 31.9999 25.0667M31.9999 56V25.0667M31.9999 56L32.2667 55.5998C34.1191 52.8212 35.0453 51.4319 36.269 50.4262C37.3523 49.5358 38.6005 48.8678 39.9423 48.4603C41.4579 48 43.1276 48 46.4671 48H50.1333C53.1202 48 54.6137 48 55.7545 47.4187C56.7581 46.9074 57.574 46.0915 58.0853 45.088C58.6666 43.9471 58.6666 42.4536 58.6666 39.4667V16.5333C58.6666 13.5464 58.6666 12.0529 58.0853 10.9121C57.574 9.90852 56.7581 9.09262 55.7545 8.5813C54.6137 8 53.1202 8 50.1333 8H49.0666C43.0927 8 40.1057 8 37.824 9.1626C35.817 10.1852 34.1852 11.817 33.1625 13.8241C31.9999 16.1058 31.9999 19.0928 31.9999 25.0667" stroke="#11364F" stroke-width="5.33333" stroke-linecap="round" stroke-linejoin="round"/>
</svg>
