<svg width="64" height="64" viewBox="0 0 64 64" fill="none" xmlns="http://www.w3.org/2000/svg">
<path d="M26.6666 38.7593C29.956 36.8581 34.0435 36.8581 37.3329 38.7593M5.33325 40L7.20389 21.2937C7.27481 20.5844 7.31027 20.2298 7.36466 19.9256C8.00585 16.3388 10.9898 13.6383 14.6226 13.3572C14.9308 13.3334 15.2872 13.3334 15.9999 13.3334M58.6666 40L56.796 21.2937C56.725 20.5845 56.6896 20.2298 56.6352 19.9256C55.994 16.3388 53.01 13.6383 49.3772 13.3572C49.0691 13.3334 48.7127 13.3334 47.9999 13.3334M23.5424 32.4576C27.708 36.6231 27.708 43.3769 23.5424 47.5425C19.3768 51.7081 12.623 51.7081 8.45744 47.5425C4.29186 43.3769 4.29186 36.6232 8.45744 32.4576C12.623 28.292 19.3768 28.292 23.5424 32.4576ZM55.5424 32.4576C59.708 36.6231 59.708 43.3769 55.5424 47.5425C51.3768 51.7081 44.623 51.7081 40.4574 47.5425C36.2919 43.3769 36.2919 36.6232 40.4574 32.4576C44.623 28.292 51.3768 28.292 55.5424 32.4576Z" stroke="#11364F" stroke-width="5.33333" stroke-linecap="round" stroke-linejoin="round"/>
</svg>
