<svg width="72" height="72" viewBox="0 0 72 72" fill="none" xmlns="http://www.w3.org/2000/svg">
<path d="M51 43.5V34.4833C51 33.9449 51 33.6756 50.918 33.438C50.8455 33.2278 50.7272 33.0363 50.5716 32.8775C50.3957 32.6979 50.1549 32.5775 49.6733 32.3367L36 25.5M12 28.5V48.9199C12 50.0356 12 50.5935 12.1741 51.0819C12.3279 51.5137 12.5787 51.9045 12.9071 52.2243C13.2786 52.5861 13.7858 52.8185 14.8001 53.2834L34.0001 62.0834C34.7358 62.4206 35.1036 62.5892 35.4868 62.6557C35.8264 62.7147 36.1736 62.7147 36.5132 62.6557C36.8964 62.5892 37.2642 62.4206 37.9999 62.0834L57.1999 53.2834C58.2142 52.8185 58.7213 52.5861 59.0929 52.2243C59.4213 51.9045 59.6721 51.5137 59.8259 51.0819C60 50.5935 60 50.0356 60 48.9199V28.5M6 25.5L34.9267 11.0367C35.3202 10.8399 35.517 10.7415 35.7234 10.7028C35.9062 10.6685 36.0938 10.6685 36.2766 10.7028C36.483 10.7415 36.6798 10.8399 37.0733 11.0367L66 25.5L37.0733 39.9634C36.6798 40.1601 36.483 40.2585 36.2766 40.2972C36.0938 40.3315 35.9062 40.3315 35.7234 40.2972C35.517 40.2585 35.3202 40.1601 34.9267 39.9634L6 25.5Z" stroke="#11364F" stroke-width="6" stroke-linecap="round" stroke-linejoin="round"/>
</svg>
