<svg width="72" height="72" viewBox="0 0 72 72" fill="none" xmlns="http://www.w3.org/2000/svg">
<path d="M30 45L20.7742 54.3411C19.4874 55.6441 18.8439 56.2955 18.2909 56.3415C17.811 56.3813 17.3412 56.1885 17.0279 55.8229C16.6667 55.4016 16.6667 54.4859 16.6667 52.6546V47.9748C16.6667 46.3319 15.3212 45.1431 13.6956 44.905V44.905C9.76123 44.3287 6.67133 41.2388 6.09503 37.3044C6 36.6557 6 35.8815 6 34.3333V20.4C6 15.3595 6 12.8393 6.98094 10.9141C7.8438 9.22063 9.22063 7.8438 10.9141 6.98094C12.8393 6 15.3595 6 20.4 6H42.6C47.6405 6 50.1607 6 52.0859 6.98094C53.7794 7.8438 55.1562 9.22063 56.0191 10.9141C57 12.8393 57 15.3595 57 20.4V33M57 66L50.4708 61.4606C49.553 60.8225 49.0941 60.5035 48.5946 60.2773C48.1513 60.0765 47.6853 59.9304 47.2067 59.8422C46.6675 59.7429 46.1086 59.7429 44.9908 59.7429H39.6C36.2397 59.7429 34.5595 59.7429 33.2761 59.0889C32.1471 58.5137 31.2292 57.5958 30.654 56.4668C30 55.1833 30 53.5032 30 50.1429V42.6C30 39.2397 30 37.5595 30.654 36.2761C31.2292 35.1471 32.1471 34.2292 33.2761 33.654C34.5595 33 36.2397 33 39.6 33H56.4C59.7603 33 61.4405 33 62.7239 33.654C63.8529 34.2292 64.7708 35.1471 65.346 36.2761C66 37.5595 66 39.2397 66 42.6V50.7429C66 53.5385 66 54.9363 65.5433 56.039C64.9343 57.5091 63.7663 58.6772 62.2961 59.2861C61.1935 59.7429 59.7956 59.7429 57 59.7429V66Z" stroke="black" stroke-width="6" stroke-linecap="round" stroke-linejoin="round"/>
</svg>
